solid robotics_mount_bracket_v1
  facet normal 0.000000e+00 0.000000e+00 1.000000e+00
    outer loop
      vertex 0.000000e+00 0.000000e+00 8.000000e+00
      vertex 4.000000e+01 0.000000e+00 8.000000e+00
      vertex 4.000000e+01 4.000000e+01 8.000000e+00
    endloop
  endfacet
  facet normal 0.000000e+00 0.000000e+00 1.000000e+00
    outer loop
      vertex 0.000000e+00 0.000000e+00 8.000000e+00
      vertex 4.000000e+01 4.000000e+01 8.000000e+00
      vertex 0.000000e+00 4.000000e+01 8.000000e+00
    endloop
  endfacet
  facet normal 0.000000e+00 0.000000e+00 -1.000000e+00
    outer loop
      vertex 0.000000e+00 0.000000e+00 0.000000e+00
      vertex 0.000000e+00 4.000000e+01 0.000000e+00
      vertex 4.000000e+01 4.000000e+01 0.000000e+00
    endloop
  endfacet
  facet normal 0.000000e+00 0.000000e+00 -1.000000e+00
    outer loop
      vertex 0.000000e+00 0.000000e+00 0.000000e+00
      vertex 4.000000e+01 4.000000e+01 0.000000e+00
      vertex 4.000000e+01 0.000000e+00 0.000000e+00
    endloop
  endfacet
  facet normal 1.000000e+00 0.000000e+00 0.000000e+00
    outer loop
      vertex 4.000000e+01 0.000000e+00 0.000000e+00
      vertex 4.000000e+01 4.000000e+01 0.000000e+00
      vertex 4.000000e+01 4.000000e+01 8.000000e+00
    endloop
  endfacet
  facet normal 1.000000e+00 0.000000e+00 0.000000e+00
    outer loop
      vertex 4.000000e+01 0.000000e+00 0.000000e+00
      vertex 4.000000e+01 4.000000e+01 8.000000e+00
      vertex 4.000000e+01 0.000000e+00 8.000000e+00
    endloop
  endfacet
  facet normal -1.000000e+00 0.000000e+00 0.000000e+00
    outer loop
      vertex 0.000000e+00 0.000000e+00 0.000000e+00
      vertex 0.000000e+00 0.000000e+00 8.000000e+00
      vertex 0.000000e+00 4.000000e+01 8.000000e+00
    endloop
  endfacet
  facet normal -1.000000e+00 0.000000e+00 0.000000e+00
    outer loop
      vertex 0.000000e+00 0.000000e+00 0.000000e+00
      vertex 0.000000e+00 4.000000e+01 8.000000e+00
      vertex 0.000000e+00 4.000000e+01 0.000000e+00
    endloop
  endfacet
  facet normal 0.000000e+00 1.000000e+00 0.000000e+00
    outer loop
      vertex 0.000000e+00 4.000000e+01 0.000000e+00
      vertex 0.000000e+00 4.000000e+01 8.000000e+00
      vertex 4.000000e+01 4.000000e+01 8.000000e+00
    endloop
  endfacet
  facet normal 0.000000e+00 1.000000e+00 0.000000e+00
    outer loop
      vertex 0.000000e+00 4.000000e+01 0.000000e+00
      vertex 4.000000e+01 4.000000e+01 8.000000e+00
      vertex 4.000000e+01 4.000000e+01 0.000000e+00
    endloop
  endfacet
  facet normal 0.000000e+00 -1.000000e+00 0.000000e+00
    outer loop
      vertex 0.000000e+00 0.000000e+00 0.000000e+00
      vertex 4.000000e+01 0.000000e+00 0.000000e+00
      vertex 4.000000e+01 0.000000e+00 8.000000e+00
    endloop
  endfacet
  facet normal 0.000000e+00 -1.000000e+00 0.000000e+00
    outer loop
      vertex 0.000000e+00 0.000000e+00 0.000000e+00
      vertex 4.000000e+01 0.000000e+00 8.000000e+00
      vertex 0.000000e+00 0.000000e+00 8.000000e+00
    endloop
  endfacet
endsolid robotics_mount_bracket_v1